<mxfile host="65bd71144e" scale="2" border="0">
    <diagram id="yUE5iZ8mLl_cM_Y-DyXM" name="Page-1">
        <mxGraphModel dx="1415" dy="687" grid="1" gridSize="10" guides="1" tooltips="1" connect="1" arrows="1" fold="1" page="1" pageScale="1" pageWidth="827" pageHeight="1169" math="0" shadow="0">
            <root>
                <mxCell id="0"/>
                <mxCell id="1" parent="0"/>
                <mxCell id="11" value="" style="rounded=0;whiteSpace=wrap;html=1;gradientColor=none;fillColor=none;strokeWidth=3;" parent="1" vertex="1">
                    <mxGeometry x="160" y="130" width="570" height="330" as="geometry"/>
                </mxCell>
                <mxCell id="3" value="Baud rate &lt;br&gt;generator" style="rounded=0;whiteSpace=wrap;html=1;fillColor=#f5f5f5;fontColor=#333333;strokeColor=#666666;" parent="1" vertex="1">
                    <mxGeometry x="290" y="214" width="80" height="60" as="geometry"/>
                </mxCell>
                <mxCell id="4" value="Bit counter" style="rounded=0;whiteSpace=wrap;html=1;fillColor=#f5f5f5;fontColor=#333333;strokeColor=#666666;" parent="1" vertex="1">
                    <mxGeometry x="290" y="350" width="80" height="60" as="geometry"/>
                </mxCell>
                <mxCell id="5" value="RX shift register" style="rounded=0;whiteSpace=wrap;html=1;fillColor=#f5f5f5;fontColor=#333333;strokeColor=#666666;" parent="1" vertex="1">
                    <mxGeometry x="528" y="214" width="100" height="60" as="geometry"/>
                </mxCell>
                <mxCell id="10" style="edgeStyle=none;html=1;exitX=0.5;exitY=0;exitDx=0;exitDy=0;entryX=0.5;entryY=1;entryDx=0;entryDy=0;endArrow=blockThin;endFill=1;" parent="1" source="6" target="3" edge="1">
                    <mxGeometry relative="1" as="geometry">
                        <Array as="points">
                            <mxPoint x="600" y="310"/>
                            <mxPoint x="480" y="310"/>
                            <mxPoint x="330" y="310"/>
                        </Array>
                    </mxGeometry>
                </mxCell>
                <mxCell id="140" value="rx_enable" style="edgeLabel;html=1;align=center;verticalAlign=middle;resizable=0;points=[];" vertex="1" connectable="0" parent="10">
                    <mxGeometry x="-0.3237" y="-2" relative="1" as="geometry">
                        <mxPoint as="offset"/>
                    </mxGeometry>
                </mxCell>
                <mxCell id="6" value="RX FSM" style="rounded=0;whiteSpace=wrap;html=1;fillColor=#f5f5f5;fontColor=#333333;strokeColor=#666666;" parent="1" vertex="1">
                    <mxGeometry x="540" y="350" width="120" height="60" as="geometry"/>
                </mxCell>
                <mxCell id="37" value="" style="endArrow=blockThin;html=1;rounded=0;strokeColor=default;strokeWidth=1;entryX=0;entryY=0.5;entryDx=0;entryDy=0;exitX=1;exitY=0.5;exitDx=0;exitDy=0;endFill=1;" parent="1" source="4" target="6" edge="1">
                    <mxGeometry width="50" height="50" relative="1" as="geometry">
                        <mxPoint x="660" y="260" as="sourcePoint"/>
                        <mxPoint x="710" y="210" as="targetPoint"/>
                    </mxGeometry>
                </mxCell>
                <mxCell id="38" value="&lt;font style=&quot;font-size: 12px&quot;&gt;rx_complete&lt;/font&gt;" style="edgeLabel;html=1;align=center;verticalAlign=middle;resizable=0;points=[];" parent="37" vertex="1" connectable="0">
                    <mxGeometry x="0.32" y="1" relative="1" as="geometry">
                        <mxPoint x="-60" y="-9" as="offset"/>
                    </mxGeometry>
                </mxCell>
                <mxCell id="41" value="&lt;font style=&quot;font-size: 19px&quot;&gt;rx_uart.vhd&lt;/font&gt;" style="text;html=1;resizable=0;autosize=1;align=center;verticalAlign=middle;points=[];fillColor=none;strokeColor=none;rounded=0;" parent="1" vertex="1">
                    <mxGeometry x="370" y="90" width="110" height="20" as="geometry"/>
                </mxCell>
                <mxCell id="44" style="edgeStyle=none;html=1;entryX=1;entryY=0.25;entryDx=0;entryDy=0;endArrow=none;endFill=0;startArrow=blockThin;startFill=1;" parent="1" target="6" edge="1">
                    <mxGeometry relative="1" as="geometry">
                        <mxPoint x="770" y="365" as="sourcePoint"/>
                        <mxPoint x="510" y="420" as="targetPoint"/>
                        <Array as="points">
                            <mxPoint x="740" y="365"/>
                            <mxPoint x="720" y="365"/>
                            <mxPoint x="700" y="365"/>
                        </Array>
                    </mxGeometry>
                </mxCell>
                <mxCell id="100" value="rx_busy" style="edgeLabel;html=1;align=center;verticalAlign=middle;resizable=0;points=[];" parent="44" vertex="1" connectable="0">
                    <mxGeometry x="-0.698" relative="1" as="geometry">
                        <mxPoint x="9" y="-17" as="offset"/>
                    </mxGeometry>
                </mxCell>
                <mxCell id="49" value="" style="endArrow=blockThin;html=1;rounded=1;fontSize=12;strokeColor=default;strokeWidth=1;entryX=-0.003;entryY=0.394;entryDx=0;entryDy=0;entryPerimeter=0;endFill=1;" parent="1" edge="1">
                    <mxGeometry width="50" height="50" relative="1" as="geometry">
                        <mxPoint x="124.63333333333343" y="273.41" as="sourcePoint"/>
                        <mxPoint x="160" y="273.55" as="targetPoint"/>
                    </mxGeometry>
                </mxCell>
                <mxCell id="50" value="areset_n" style="edgeLabel;html=1;align=center;verticalAlign=middle;resizable=0;points=[];fontSize=12;" parent="49" vertex="1" connectable="0">
                    <mxGeometry x="-0.5604" y="3" relative="1" as="geometry">
                        <mxPoint x="-1" y="-10" as="offset"/>
                    </mxGeometry>
                </mxCell>
                <mxCell id="59" style="edgeStyle=none;rounded=1;html=1;exitX=1;exitY=0.25;exitDx=0;exitDy=0;entryX=0;entryY=0.25;entryDx=0;entryDy=0;fontSize=12;endArrow=blockThin;endFill=1;strokeColor=default;strokeWidth=1;" parent="1" source="3" target="5" edge="1">
                    <mxGeometry relative="1" as="geometry">
                        <Array as="points"/>
                        <mxPoint x="507" y="237.37999999999988" as="sourcePoint"/>
                    </mxGeometry>
                </mxCell>
                <mxCell id="67" style="edgeStyle=none;rounded=1;html=1;entryX=0.5;entryY=0;entryDx=0;entryDy=0;fontSize=10;endArrow=blockThin;endFill=1;strokeColor=default;strokeWidth=1;exitX=1;exitY=0.25;exitDx=0;exitDy=0;" parent="1" source="3" target="4" edge="1">
                    <mxGeometry relative="1" as="geometry">
                        <mxPoint x="520" y="237" as="sourcePoint"/>
                        <Array as="points">
                            <mxPoint x="460" y="230"/>
                            <mxPoint x="460" y="330"/>
                            <mxPoint x="330" y="330"/>
                        </Array>
                    </mxGeometry>
                </mxCell>
                <mxCell id="69" value="&lt;font style=&quot;font-size: 12px&quot;&gt;baud_rate_clk&lt;/font&gt;" style="edgeLabel;html=1;align=center;verticalAlign=middle;resizable=0;points=[];fontSize=10;" parent="67" vertex="1" connectable="0">
                    <mxGeometry x="-0.6666" y="1" relative="1" as="geometry">
                        <mxPoint x="5" y="-29" as="offset"/>
                    </mxGeometry>
                </mxCell>
                <mxCell id="73" value="" style="endArrow=classic;html=1;rounded=1;fontSize=10;strokeColor=default;strokeWidth=1;entryX=0;entryY=0.5;entryDx=0;entryDy=0;" parent="1" edge="1">
                    <mxGeometry width="50" height="50" relative="1" as="geometry">
                        <mxPoint x="270" y="257.06" as="sourcePoint"/>
                        <mxPoint x="290" y="256.99999999999994" as="targetPoint"/>
                    </mxGeometry>
                </mxCell>
                <mxCell id="74" value="&lt;font style=&quot;font-size: 12px&quot;&gt;clk&lt;/font&gt;" style="edgeLabel;html=1;align=center;verticalAlign=middle;resizable=0;points=[];fontSize=10;" parent="73" vertex="1" connectable="0">
                    <mxGeometry x="-0.5695" y="1" relative="1" as="geometry">
                        <mxPoint x="-14" y="1" as="offset"/>
                    </mxGeometry>
                </mxCell>
                <mxCell id="75" value="" style="endArrow=blockThin;html=1;rounded=1;fontSize=10;strokeColor=default;strokeWidth=1;entryX=0;entryY=0.5;entryDx=0;entryDy=0;endFill=1;" parent="1" edge="1">
                    <mxGeometry width="50" height="50" relative="1" as="geometry">
                        <mxPoint x="270" y="400.05999999999983" as="sourcePoint"/>
                        <mxPoint x="290" y="400.0000000000001" as="targetPoint"/>
                    </mxGeometry>
                </mxCell>
                <mxCell id="76" value="&lt;font style=&quot;font-size: 12px&quot;&gt;clk&lt;/font&gt;" style="edgeLabel;html=1;align=center;verticalAlign=middle;resizable=0;points=[];fontSize=10;" parent="75" vertex="1" connectable="0">
                    <mxGeometry x="-0.5695" y="1" relative="1" as="geometry">
                        <mxPoint x="-14" as="offset"/>
                    </mxGeometry>
                </mxCell>
                <mxCell id="77" value="" style="endArrow=blockThin;html=1;rounded=1;fontSize=10;strokeColor=default;strokeWidth=1;entryX=0;entryY=0.5;entryDx=0;entryDy=0;endFill=1;" parent="1" edge="1">
                    <mxGeometry width="50" height="50" relative="1" as="geometry">
                        <mxPoint x="520" y="400.05999999999983" as="sourcePoint"/>
                        <mxPoint x="540" y="400.0000000000001" as="targetPoint"/>
                    </mxGeometry>
                </mxCell>
                <mxCell id="78" value="&lt;font style=&quot;font-size: 12px&quot;&gt;clk&lt;/font&gt;" style="edgeLabel;html=1;align=center;verticalAlign=middle;resizable=0;points=[];fontSize=10;" parent="77" vertex="1" connectable="0">
                    <mxGeometry x="-0.5695" y="1" relative="1" as="geometry">
                        <mxPoint x="-14" as="offset"/>
                    </mxGeometry>
                </mxCell>
                <mxCell id="79" value="" style="endArrow=blockThin;html=1;rounded=1;fontSize=10;strokeColor=default;strokeWidth=1;entryX=0;entryY=0.5;entryDx=0;entryDy=0;endFill=1;" parent="1" edge="1">
                    <mxGeometry width="50" height="50" relative="1" as="geometry">
                        <mxPoint x="507" y="257.05999999999983" as="sourcePoint"/>
                        <mxPoint x="527" y="257.0000000000001" as="targetPoint"/>
                    </mxGeometry>
                </mxCell>
                <mxCell id="80" value="&lt;font style=&quot;font-size: 12px&quot;&gt;clk&lt;/font&gt;" style="edgeLabel;html=1;align=center;verticalAlign=middle;resizable=0;points=[];fontSize=10;" parent="79" vertex="1" connectable="0">
                    <mxGeometry x="-0.5695" y="1" relative="1" as="geometry">
                        <mxPoint x="-14" as="offset"/>
                    </mxGeometry>
                </mxCell>
                <mxCell id="81" value="" style="endArrow=blockThin;html=1;rounded=1;fontSize=10;strokeColor=default;strokeWidth=1;entryX=0;entryY=0.5;entryDx=0;entryDy=0;endFill=1;" parent="1" edge="1">
                    <mxGeometry width="50" height="50" relative="1" as="geometry">
                        <mxPoint x="130" y="310" as="sourcePoint"/>
                        <mxPoint x="160" y="310" as="targetPoint"/>
                    </mxGeometry>
                </mxCell>
                <mxCell id="82" value="&lt;font style=&quot;font-size: 12px&quot;&gt;clk&lt;/font&gt;" style="edgeLabel;html=1;align=center;verticalAlign=middle;resizable=0;points=[];fontSize=10;" parent="81" vertex="1" connectable="0">
                    <mxGeometry x="-0.5695" y="1" relative="1" as="geometry">
                        <mxPoint x="4" y="-12" as="offset"/>
                    </mxGeometry>
                </mxCell>
                <mxCell id="94" style="edgeStyle=none;html=1;entryX=1;entryY=0.75;entryDx=0;entryDy=0;endArrow=none;endFill=0;startArrow=blockThin;startFill=1;" parent="1" target="5" edge="1">
                    <mxGeometry relative="1" as="geometry">
                        <mxPoint x="770" y="259" as="sourcePoint"/>
                        <mxPoint x="510" y="420" as="targetPoint"/>
                        <Array as="points">
                            <mxPoint x="720" y="259"/>
                            <mxPoint x="700" y="259"/>
                        </Array>
                    </mxGeometry>
                </mxCell>
                <mxCell id="97" value="rx_err" style="edgeLabel;html=1;align=center;verticalAlign=middle;resizable=0;points=[];" parent="94" vertex="1" connectable="0">
                    <mxGeometry x="-0.9474" y="1" relative="1" as="geometry">
                        <mxPoint x="-13" y="-15" as="offset"/>
                    </mxGeometry>
                </mxCell>
                <mxCell id="110" value="" style="endArrow=none;html=1;rounded=1;strokeColor=default;strokeWidth=1;endFill=0;startArrow=blockThin;startFill=1;exitX=0.25;exitY=0;exitDx=0;exitDy=0;" parent="1" source="5" edge="1">
                    <mxGeometry x="-1" y="10" width="50" height="50" relative="1" as="geometry">
                        <mxPoint x="810" y="180" as="sourcePoint"/>
                        <mxPoint x="160" y="183" as="targetPoint"/>
                        <Array as="points">
                            <mxPoint x="553" y="183"/>
                        </Array>
                        <mxPoint as="offset"/>
                    </mxGeometry>
                </mxCell>
                <mxCell id="113" style="edgeStyle=none;rounded=1;html=1;exitX=0;exitY=0.105;exitDx=0;exitDy=0;entryX=0;entryY=0.25;entryDx=0;entryDy=0;fontSize=12;endArrow=blockThin;endFill=1;strokeColor=default;strokeWidth=1;exitPerimeter=0;" parent="1" edge="1">
                    <mxGeometry relative="1" as="geometry">
                        <mxPoint x="117.50999999999999" y="182.35000000000002" as="sourcePoint"/>
                        <mxPoint x="160" y="182.43" as="targetPoint"/>
                    </mxGeometry>
                </mxCell>
                <mxCell id="114" value="rx" style="edgeLabel;html=1;align=center;verticalAlign=middle;resizable=0;points=[];" parent="113" vertex="1" connectable="0">
                    <mxGeometry x="-0.5852" relative="1" as="geometry">
                        <mxPoint y="-9" as="offset"/>
                    </mxGeometry>
                </mxCell>
                <mxCell id="115" value="" style="endArrow=none;html=1;rounded=1;strokeColor=default;strokeWidth=1;endFill=0;startArrow=blockThin;startFill=1;exitX=0.25;exitY=1;exitDx=0;exitDy=0;" parent="1" source="6" edge="1">
                    <mxGeometry x="-1" y="10" width="50" height="50" relative="1" as="geometry">
                        <mxPoint x="615" y="222" as="sourcePoint"/>
                        <mxPoint x="160" y="183" as="targetPoint"/>
                        <Array as="points">
                            <mxPoint x="570" y="430"/>
                            <mxPoint x="400" y="430"/>
                            <mxPoint x="240" y="430"/>
                            <mxPoint x="240" y="310"/>
                            <mxPoint x="240" y="240"/>
                            <mxPoint x="240" y="183"/>
                        </Array>
                        <mxPoint as="offset"/>
                    </mxGeometry>
                </mxCell>
                <mxCell id="117" value="" style="endArrow=none;html=1;rounded=1;strokeColor=default;strokeWidth=1;endFill=0;startArrow=blockThin;startFill=1;exitX=0.5;exitY=1;exitDx=0;exitDy=0;entryX=0;entryY=0.435;entryDx=0;entryDy=0;entryPerimeter=0;" parent="1" source="6" target="11" edge="1">
                    <mxGeometry x="-1" y="10" width="50" height="50" relative="1" as="geometry">
                        <mxPoint x="580" y="420" as="sourcePoint"/>
                        <mxPoint x="232.49" y="193.25" as="targetPoint"/>
                        <Array as="points">
                            <mxPoint x="600" y="440"/>
                            <mxPoint x="410" y="440"/>
                            <mxPoint x="250" y="440"/>
                            <mxPoint x="180" y="440"/>
                            <mxPoint x="180" y="360"/>
                            <mxPoint x="180" y="320"/>
                            <mxPoint x="180" y="290"/>
                            <mxPoint x="180" y="274"/>
                        </Array>
                        <mxPoint as="offset"/>
                    </mxGeometry>
                </mxCell>
                <mxCell id="132" value="" style="endArrow=blockThin;html=1;rounded=1;strokeColor=default;strokeWidth=1;entryX=0.5;entryY=1;entryDx=0;entryDy=0;endFill=1;" parent="1" target="5" edge="1">
                    <mxGeometry width="50" height="50" relative="1" as="geometry">
                        <mxPoint x="370" y="380" as="sourcePoint"/>
                        <mxPoint x="550" y="390" as="targetPoint"/>
                        <Array as="points">
                            <mxPoint x="480" y="380"/>
                            <mxPoint x="480" y="330"/>
                            <mxPoint x="578" y="330"/>
                        </Array>
                    </mxGeometry>
                </mxCell>
                <mxCell id="137" style="edgeStyle=none;html=1;entryX=1;entryY=0.75;entryDx=0;entryDy=0;endArrow=none;endFill=0;startArrow=blockThin;startFill=1;" parent="1" edge="1">
                    <mxGeometry relative="1" as="geometry">
                        <mxPoint x="770" y="230" as="sourcePoint"/>
                        <mxPoint x="627.9999999999998" y="230" as="targetPoint"/>
                        <Array as="points">
                            <mxPoint x="720" y="230"/>
                            <mxPoint x="700" y="230"/>
                        </Array>
                    </mxGeometry>
                </mxCell>
                <mxCell id="138" value="rx_data" style="edgeLabel;html=1;align=center;verticalAlign=middle;resizable=0;points=[];" parent="137" vertex="1" connectable="0">
                    <mxGeometry x="-0.9474" y="1" relative="1" as="geometry">
                        <mxPoint x="-13" y="-15" as="offset"/>
                    </mxGeometry>
                </mxCell>
                <mxCell id="139" value="" style="endArrow=none;html=1;rounded=1;strokeColor=default;strokeWidth=1;endFill=0;startArrow=blockThin;startFill=1;exitX=0.5;exitY=1;exitDx=0;exitDy=0;entryX=0;entryY=0.435;entryDx=0;entryDy=0;entryPerimeter=0;" parent="1" source="4" edge="1">
                    <mxGeometry x="-1" y="10" width="50" height="50" relative="1" as="geometry">
                        <mxPoint x="600" y="410.45" as="sourcePoint"/>
                        <mxPoint x="160" y="273.99999999999994" as="targetPoint"/>
                        <Array as="points">
                            <mxPoint x="330" y="440"/>
                            <mxPoint x="250" y="440.45"/>
                            <mxPoint x="180" y="440.45"/>
                            <mxPoint x="180" y="360.45"/>
                            <mxPoint x="180" y="320.45"/>
                            <mxPoint x="180" y="290.45"/>
                            <mxPoint x="180" y="274.45"/>
                        </Array>
                        <mxPoint as="offset"/>
                    </mxGeometry>
                </mxCell>
            </root>
        </mxGraphModel>
    </diagram>
</mxfile>